{
	"asset":{
		"generator":"Khronos glTF Blender I/O v4.4.56",
		"version":"2.0"
	},
	"extensionsUsed":[
		"KHR_materials_specular",
		"KHR_materials_ior"
	],
	"scene":0,
	"scenes":[
		{
			"name":"Scene",
			"nodes":[
				1,
				2
			]
		}
	],
	"nodes":[
		{
			"mesh":0,
			"name":"fluff",
			"scale":[
				1.000428557395935,
				1.000428557395935,
				1.000428557395935
			],
			"translation":[
				1.1508228778839111,
				-0.20782722532749176,
				-0.02269004099071026
			]
		},
		{
			"children":[
				0
			],
			"mesh":1,
			"name":"canister",
			"scale":[
				0.026988433673977852,
				0.026988433673977852,
				0.026988433673977852
			]
		},
		{
			"mesh":2,
			"name":"film",
			"rotation":[
				0.3867776095867157,
				0.5919485688209534,
				-0.5919485092163086,
				0.3867776393890381
			],
			"translation":[
				-0.014388137497007847,
				-0.002223581075668335,
				-0.005003090016543865
			]
		}
	],
	"materials":[
		{
			"doubleSided":true,
			"name":"fluff",
			"pbrMetallicRoughness":{
				"baseColorFactor":[
					0,
					0,
					0,
					1
				],
				"metallicFactor":0,
				"roughnessFactor":0.6818181872367859
			}
		},
		{
			"doubleSided":true,
			"name":"main",
			"pbrMetallicRoughness":{
				"baseColorTexture":{
					"index":0
				},
				"metallicRoughnessTexture":{
					"index":1
				},
				"roughnessFactor":0.135294109582901
			}
		},
		{
			"doubleSided":true,
			"name":"plastic",
			"pbrMetallicRoughness":{
				"baseColorFactor":[
					0,
					0,
					0,
					1
				],
				"metallicFactor":0,
				"roughnessFactor":0.22794117033481598
			}
		},
		{
			"doubleSided":true,
			"extensions":{
				"KHR_materials_specular":{
					"specularColorFactor":[
						2.0,
						2.0,
						2.0
					]
				},
				"KHR_materials_ior":{
					"ior":1.4500000476837158
				}
			},
			"name":"film",
			"pbrMetallicRoughness":{
				"baseColorFactor":[
					0.04424117133021355,
					0.01743251085281372,
					0.0128545006737113,
					1
				],
				"metallicFactor":0,
				"roughnessFactor":0.10000000149011612
			}
		}
	],
	"meshes":[
		{
			"name":"Cylinder.002",
			"primitives":[
				{
					"attributes":{
						"POSITION":0,
						"NORMAL":1,
						"TEXCOORD_0":2
					},
					"indices":3,
					"material":0
				}
			]
		},
		{
			"name":"Cylinder",
			"primitives":[
				{
					"attributes":{
						"POSITION":4,
						"NORMAL":5,
						"TEXCOORD_0":6
					},
					"indices":7,
					"material":1
				},
				{
					"attributes":{
						"POSITION":8,
						"NORMAL":9,
						"TEXCOORD_0":10
					},
					"indices":11,
					"material":2
				}
			]
		},
		{
			"name":"Plane.001",
			"primitives":[
				{
					"attributes":{
						"POSITION":12,
						"NORMAL":13,
						"TEXCOORD_0":14
					},
					"indices":15,
					"material":3
				}
			]
		}
	],
	"textures":[
		{
			"sampler":0,
			"source":0
		},
		{
			"sampler":0,
			"source":1
		}
	],
	"images":[
		{
			"mimeType":"image/jpeg",
			"name":"color",
			"uri":"color.jpg"
		},
		{
			"mimeType":"image/jpeg",
			"name":"metallic",
			"uri":"metallic.jpg"
		}
	],
	"accessors":[
		{
			"bufferView":0,
			"componentType":5126,
			"count":38,
			"max":[
				-1.4247157573699951,
				0.8539198040962219,
				0.36647894978523254
			],
			"min":[
				-1.6585150957107544,
				-0.6161684989929199,
				0.22703127562999725
			],
			"type":"VEC3"
		},
		{
			"bufferView":1,
			"componentType":5126,
			"count":38,
			"type":"VEC3"
		},
		{
			"bufferView":2,
			"componentType":5126,
			"count":38,
			"type":"VEC2"
		},
		{
			"bufferView":3,
			"componentType":5123,
			"count":204,
			"type":"SCALAR"
		},
		{
			"bufferView":4,
			"componentType":5126,
			"count":75,
			"max":[
				0.4373801648616791,
				0.5875870585441589,
				0.4345375895500183
			],
			"min":[
				-0.49352413415908813,
				-0.7475420832633972,
				-0.4373801052570343
			],
			"type":"VEC3"
		},
		{
			"bufferView":5,
			"componentType":5126,
			"count":75,
			"type":"VEC3"
		},
		{
			"bufferView":6,
			"componentType":5126,
			"count":75,
			"type":"VEC2"
		},
		{
			"bufferView":7,
			"componentType":5123,
			"count":198,
			"type":"SCALAR"
		},
		{
			"bufferView":8,
			"componentType":5126,
			"count":1954,
			"max":[
				0.44802772998809814,
				0.8454104065895081,
				0.44802767038345337
			],
			"min":[
				-0.49352413415908813,
				-0.8454104065895081,
				-0.448027640581131
			],
			"type":"VEC3"
		},
		{
			"bufferView":9,
			"componentType":5126,
			"count":1954,
			"type":"VEC3"
		},
		{
			"bufferView":10,
			"componentType":5126,
			"count":1954,
			"type":"VEC2"
		},
		{
			"bufferView":11,
			"componentType":5123,
			"count":6096,
			"type":"SCALAR"
		},
		{
			"bufferView":12,
			"componentType":5126,
			"count":3983,
			"max":[
				0.013611475005745888,
				0.006249202415347099,
				0.017394794151186943
			],
			"min":[
				-0.011257247999310493,
				-0.006247334182262421,
				-0.017394792288541794
			],
			"type":"VEC3"
		},
		{
			"bufferView":13,
			"componentType":5126,
			"count":3983,
			"type":"VEC3"
		},
		{
			"bufferView":14,
			"componentType":5126,
			"count":3983,
			"type":"VEC2"
		},
		{
			"bufferView":15,
			"componentType":5123,
			"count":19212,
			"type":"SCALAR"
		}
	],
	"bufferViews":[
		{
			"buffer":0,
			"byteLength":456,
			"byteOffset":0,
			"target":34962
		},
		{
			"buffer":0,
			"byteLength":456,
			"byteOffset":456,
			"target":34962
		},
		{
			"buffer":0,
			"byteLength":304,
			"byteOffset":912,
			"target":34962
		},
		{
			"buffer":0,
			"byteLength":408,
			"byteOffset":1216,
			"target":34963
		},
		{
			"buffer":0,
			"byteLength":900,
			"byteOffset":1624,
			"target":34962
		},
		{
			"buffer":0,
			"byteLength":900,
			"byteOffset":2524,
			"target":34962
		},
		{
			"buffer":0,
			"byteLength":600,
			"byteOffset":3424,
			"target":34962
		},
		{
			"buffer":0,
			"byteLength":396,
			"byteOffset":4024,
			"target":34963
		},
		{
			"buffer":0,
			"byteLength":23448,
			"byteOffset":4420,
			"target":34962
		},
		{
			"buffer":0,
			"byteLength":23448,
			"byteOffset":27868,
			"target":34962
		},
		{
			"buffer":0,
			"byteLength":15632,
			"byteOffset":51316,
			"target":34962
		},
		{
			"buffer":0,
			"byteLength":12192,
			"byteOffset":66948,
			"target":34963
		},
		{
			"buffer":0,
			"byteLength":47796,
			"byteOffset":79140,
			"target":34962
		},
		{
			"buffer":0,
			"byteLength":47796,
			"byteOffset":126936,
			"target":34962
		},
		{
			"buffer":0,
			"byteLength":31864,
			"byteOffset":174732,
			"target":34962
		},
		{
			"buffer":0,
			"byteLength":38424,
			"byteOffset":206596,
			"target":34963
		}
	],
	"samplers":[
		{
			"magFilter":9729,
			"minFilter":9987
		}
	],
	"buffers":[
		{
			"byteLength":245020,
			"uri":"canister.bin"
		}
	]
}
